<svg xmlns="http://www.w3.org/2000/svg" width="118.814" height="23.564" viewBox="0 0 201.688 40">
  <defs>
    <style>
      .cls-1 {
        fill: #212529;
      }

      .cls-1, .cls-2 {
        fill-rule: evenodd;
      }

      .cls-2 {
        fill: #21c87a;
      }
    </style>
  </defs>
  <path id="J_bster" data-name="J    bster" class="cls-1" d="M16.043,3.517v24.9a4.99,4.99,0,0,1-.95,3.225,3.569,3.569,0,0,1-2.95,1.175,3.948,3.948,0,0,1-3.325-1.45,6.65,6.65,0,0,1-1.125-4.15H0.743q0,5.75,3.15,8.85a11.658,11.658,0,0,0,8.55,3.1,10.575,10.575,0,0,0,7.825-2.825q2.824-2.824,2.825-7.925V3.517h-7.05Zm74.347,7.25a10.524,10.524,0,0,0-5.975,1.65,9.031,9.031,0,0,0-3.525,4.45V1.817h-7.05v37h7.05v-5.8a9.16,9.16,0,0,0,3.525,4.475,10.4,10.4,0,0,0,5.975,1.675,11.9,11.9,0,0,0,6.3-1.7,11.484,11.484,0,0,0,4.375-4.925,17.08,17.08,0,0,0,1.575-7.575,17.08,17.08,0,0,0-1.575-7.575,11.488,11.488,0,0,0-4.375-4.925,11.907,11.907,0,0,0-6.3-1.7h0Zm-2.2,6.15a6.9,6.9,0,0,1,5.3,2.15,8.326,8.326,0,0,1,2,5.9,8.234,8.234,0,0,1-2,5.875,7.577,7.577,0,0,1-10.575-.05,8.087,8.087,0,0,1-2.075-5.825,8.158,8.158,0,0,1,2.075-5.875,6.974,6.974,0,0,1,5.275-2.175h0Zm29-6.15q-4.851,0-7.6,2.25a7.2,7.2,0,0,0-2.75,5.85,6.528,6.528,0,0,0,1.375,4.4,8,8,0,0,0,3.3,2.325,39.031,39.031,0,0,0,5.025,1.425q2.25,0.551,3.475.95a5.583,5.583,0,0,1,2.05,1.15,2.513,2.513,0,0,1,.825,1.95,2.95,2.95,0,0,1-.95,2.275,3.92,3.92,0,0,1-2.75.875,6.525,6.525,0,0,1-4.05-1.175,4.555,4.555,0,0,1-1.8-3.225h-6.75a10.19,10.19,0,0,0,3.95,6.925,14.119,14.119,0,0,0,8.65,2.425,11.7,11.7,0,0,0,7.475-2.2,6.989,6.989,0,0,0,2.775-5.75,6.755,6.755,0,0,0-1.425-4.525,8.492,8.492,0,0,0-3.4-2.45,35.582,35.582,0,0,0-5.125-1.475q-2.25-.55-3.45-0.95a5.745,5.745,0,0,1-2-1.1,2.335,2.335,0,0,1-.8-1.85,2.862,2.862,0,0,1,1-2.3,4.194,4.194,0,0,1,2.8-.85,5.413,5.413,0,0,1,3.65,1.2,5.492,5.492,0,0,1,1.8,3.2h6.6a11.046,11.046,0,0,0-3.8-6.8,12.22,12.22,0,0,0-8.1-2.55h0Zm29.549,22a3.732,3.732,0,0,1-2.7-.8,3.9,3.9,0,0,1-.8-2.8v-12.1h6.2v-5.95h-6.2V4.267h-7.05v6.85h-3.85v5.95h3.85v12q0,5.25,2.475,7.5t7.125,2.25h3.7v-6.05h-2.75Zm33.85-8.85a13.578,13.578,0,0,0-1.675-6.775,11.99,11.99,0,0,0-4.75-4.675,14.6,14.6,0,0,0-7.175-1.7,14.926,14.926,0,0,0-7.2,1.7,11.926,11.926,0,0,0-4.9,4.925,15.632,15.632,0,0,0-1.75,7.575,15.485,15.485,0,0,0,1.75,7.55,12.12,12.12,0,0,0,4.9,4.925,15.845,15.845,0,0,0,13.475.425,12.285,12.285,0,0,0,4.625-3.6,11.931,11.931,0,0,0,2.35-5.2h-7.45a5.32,5.32,0,0,1-2.075,3.25,6.676,6.676,0,0,1-4.075,1.2,6.431,6.431,0,0,1-4.6-1.75q-1.851-1.75-2-5.45h20.3a13.411,13.411,0,0,0,.25-2.4h0Zm-7.1-.7h-13.45a7.16,7.16,0,0,1,2.15-5.15,6.926,6.926,0,0,1,4.8-1.75,6.771,6.771,0,0,1,4.725,1.75,6.215,6.215,0,0,1,1.775,5.15h0Zm19.149-6.8v-5.3h-7.05v27.7h7.05V25.467q0-7.2,7.75-7.2h2.05v-7.55a10.9,10.9,0,0,0-5.7,1.525,11.592,11.592,0,0,0-4.1,4.175h0Z" transform="translate(-0.75)"/>
  <path class="cls-2" d="M27.986,21.068S27.366,1.575,48.9.014c0,0,18.94.408,20.074,20.517A21.267,21.267,0,0,1,55,40l-3-6a15.293,15.293,0,0,0,9.986-15C62.021,19,60.491,8.238,49,7c0,0-11.956-.606-14,13,0,0,.49,10.882,10,14l-3,6A21.174,21.174,0,0,1,27.986,21.068Z" transform="translate(-0.75)"/>
</svg>
